{"title":"Azhar Hindi 2016 DesiSCR x264-HDF.mp4","uid":15648425,"size":737274531,"categoryP":"video","categoryS":"movies","magnet":"?xt=urn:btih:7ed4aff1abf792d4ffc45b97c4617f046711089d&amp;dn=Azhar+Hindi+2016+DesiSCR+x264-HDF.mp4&amp;tr=udp%3A%2F%2Ftracker.leechers-paradise.org%3A6969&amp;tr=udp%3A%2F%2Fzer0day.ch%3A1337&amp;tr=udp%3A%2F%2Fopen.demonii.com%3A1337&amp;tr=udp%3A%2F%2Ftracker.coppersurfer.tk%3A6969&amp;tr=udp%3A%2F%2Fexodus.desync.com%3A6969","seeders":0,"leechers":3,"uploader":null,"files":1,"time":1472071122,"description":"http://www.movierulzfull.in/ presents:\r\n\r\nAzhar Hindi 2016 DesiSCR x264-HDF.mp4\r\n\r\nScreens:\r\n \nhttp://extraimago.com/images/2016/08/24/wEX4.png \nhttp://extraimago.com/images/2016/08/24/wEXB.png \nhttp://extraimago.com/images/2016/08/24/wEXC.png \nhttp://extraimago.com/images/2016/08/24/wEXY.png \nhttp://extraimago.com/images/2016/08/24/wEXp.png\r\n\r\nInfo:\r\n\r\nFormat                                   : MPEG-4\r\nFormat profile                           : Base Media\r\nCodec ID                                 : isom (isom/iso2/avc1/mp41)\r\nFile size                                : 703 MiB\r\nDuration                                 : 2 h 10 min\r\nOverall bit rate                         : 756 kb/s\r\nWriting application                      : Lavf57.20.100\r\n\r\nVideo\r\nID                                       : 1\r\nFormat                                   : AVC\r\nFormat/Info                              : Advanced Video Codec\r\nFormat profile                           :   \r\nFormat settings, CABAC                   : Yes\r\nFormat settings, ReFrames                : 5 frames\r\nCodec ID                                 : avc1\r\nCodec ID/Info                            : Advanced Video Coding\r\nDuration                                 : 2 h 10 min\r\nBit rate                                 : 685 kb/s\r\nWidth                                    : 640 pixels\r\nHeight                                   : 284 pixels\r\nDisplay aspect ratio                     : 2.25:1\r\nFrame rate mode                          : Constant\r\nFrame rate                               : 25.000 FPS\r\nColor space                              : YUV\r\nChroma subsampling                       : 4:2:0\r\nBit depth                                : 8 bits\r\nScan type                                : Progressive\r\nBits/(Pixel*Frame)                       : 0.151\r\nStream size                              : 637 MiB (91%)\r\nTitle                                    : DDR\r\nWriting library                          : x264 core 148 r2638 7599210\r\nEncoding settings                        : cabac=1 / ref=5 / deblock=1:-1:-1 / analyse=0x3:0x133 / me=umh / subme=9 / psy=1 / psy_rd=1.00:0.15 / mixed_ref=1 / me_range=16 / chroma_me=1 / trellis=2 / 8x8dct=1 / cqm=0 / deadzone=21,11 / fast_pskip=1 / chroma_qp_offset=-3 / threads=9 / lookahead_threads=1 / sliced_threads=0 / nr=0 / decimate=1 / interlaced=0 / bluray_compat=0 / constrained_intra=0 / bframes=5 / b_pyramid=2 / b_adapt=2 / b_bias=25 / direct=3 / weightb=1 / open_gop=0 / weightp=2 / keyint=240 / keyint_min=24 / scenecut=48 / intra_refresh=0 / rc_lookahead=60 / rc=2pass / mbtree=1 / bitrate=685 / ratetol=1.0 / qcomp=0.60 / qpmin=0 / qpmax=69 / qpstep=4 / cplxblur=20.0 / qblur=0.5 / vbv_maxrate=17500 / vbv_bufsize=17500 / nal_hrd=none / filler=0 / ip_ratio=1.40 / aq=1:1.00\r\nLanguage                                 : English\r\nColor range                              : Limited\r\nColor primaries                          : BT.601 NTSC\r\nTransfer characteristics                 : BT.601\r\nMatrix coefficients                      : BT.601\r\n\r\nAudio\r\nID                                       : 2\r\nFormat                                   : AAC\r\nFormat/Info                              : Advanced Audio Codec\r\nFormat profile                           : LC\r\nCodec ID                                 : 40\r\nDuration                                 : 2 h 10 min\r\nBit rate mode                            : Constant\r\nBit rate                                 : 64.0 kb/s\r\nChannel(s)                               : 2 channels\r\nChannel positions                        : Front: L R\r\nSampling rate                            : 48.0 kHz\r\nFrame rate                               : 46.875 FPS (1024 spf)\r\nCompression mode                         : Lossy\r\nStream size                              : 59.5 MiB (8%)\r\nTitle                                    : DDR\r\nLanguage                                 : Hindi\r\nDefault                                  : Yes\r\nAlternate group                          : 1 \r\n \nhttp://www.movierulzfull.in/azhar-full-movie-watch/\r\n\r\n \nhttp://tvmoviereviews.drupalgardens.com/content/azhar-review","torrent":{"xt":"urn:btih:7ed4aff1abf792d4ffc45b97c4617f046711089d","amp;dn":"Azhar+Hindi+2016+DesiSCR+x264-HDF.mp4","amp;tr":["udp%3A%2F%2Ftracker.leechers-paradise.org%3A6969","udp%3A%2F%2Fzer0day.ch%3A1337","udp%3A%2F%2Fopen.demonii.com%3A1337","udp%3A%2F%2Ftracker.coppersurfer.tk%3A6969","udp%3A%2F%2Fexodus.desync.com%3A6969"],"infoHash":"7ed4aff1abf792d4ffc45b97c4617f046711089d","infoHashBuffer":{"type":"Buffer","data":[126,212,175,241,171,247,146,212,255,196,91,151,196,97,127,4,103,17,8,157]},"announce":[],"urlList":[]}}